<svg width="149" height="149" viewBox="0 0 149 149" fill="none" xmlns="http://www.w3.org/2000/svg">
<path d="M93.4879 46.8336L74.0888 66.2327L54.6896 46.8336C43.9759 36.1198 43.9759 18.7491 54.6896 8.03534C65.4034 -2.67845 82.7741 -2.67845 93.4879 8.03534C104.202 18.7491 104.202 36.1198 93.4879 46.8336Z" fill="#5EB02E"/>
<path d="M54.6896 101.355L74.0888 81.956L93.4879 101.355C104.202 112.069 104.202 129.44 93.4879 140.153C82.7741 150.867 65.4034 150.867 54.6896 140.153C43.9759 129.44 43.9759 112.069 54.6896 101.355Z" fill="#005929"/>
<path d="M101.344 93.4879L81.9453 74.0888L101.344 54.6896C112.058 43.9759 129.429 43.9759 140.143 54.6896C150.856 65.4034 150.856 82.7741 140.143 93.4879C129.429 104.202 112.058 104.202 101.344 93.4879Z" fill="#1F8738"/>
<path d="M46.8336 54.6896L66.2327 74.0888L46.8336 93.4879C36.1198 104.202 18.7491 104.202 8.03534 93.4879C-2.67845 82.7741 -2.67845 65.4034 8.03534 54.6896C18.7379 43.9759 36.1198 43.9759 46.8336 54.6896Z" fill="#ABE540"/>
</svg>
