<?xml version="1.0" standalone="no"?>
<!DOCTYPE svg PUBLIC "-//W3C//DTD SVG 20010904//EN"
 "http://www.w3.org/TR/2001/REC-SVG-20010904/DTD/svg10.dtd">
<svg version="1.0" xmlns="http://www.w3.org/2000/svg"
 width="700.000000pt" height="700.000000pt" viewBox="0 0 700.000000 700.000000"
 preserveAspectRatio="xMidYMid meet">
<metadata>
Created by potrace 1.14, written by Peter Selinger 2001-2017
</metadata>
<g transform="translate(0.000000,700.000000) scale(0.100000,-0.100000)"
fill="#000000" stroke="none">
<path d="M3316 6989 c-558 -77 -994 -492 -1103 -1047 -22 -117 -22 -357 1
-467 40 -190 118 -371 221 -514 34 -47 243 -264 553 -574 l498 -498 495 498
c416 418 505 513 558 592 106 160 165 297 202 472 29 135 31 381 5 504 -86
397 -322 714 -666 894 -106 56 -235 101 -355 126 -96 20 -314 28 -409 14z"/>
<path d="M5511 4800 c-250 -32 -497 -146 -698 -322 -48 -42 -286 -275 -528
-518 l-440 -440 490 -489 c297 -296 521 -511 569 -546 389 -285 901 -333 1331
-125 359 174 613 503 701 905 22 97 29 311 15 417 -74 553 -487 995 -1031
1103 -95 19 -313 27 -409 15z"/>
<path d="M2979 2653 c-533 -537 -573 -584 -664 -776 -152 -320 -163 -704 -31
-1031 168 -416 546 -719 991 -792 146 -24 375 -15 510 20 251 65 451 181 624
362 335 350 445 836 295 1299 -36 109 -115 261 -187 359 -37 50 -244 266 -545
569 -268 268 -489 487 -492 487 -4 0 -229 -224 -501 -497z"/>
</g>
</svg>
