<svg width="38" height="37" viewBox="0 0 38 37" fill="none" xmlns="http://www.w3.org/2000/svg">
<rect width="36.3788" height="36.3788" transform="translate(0.65625)" fill="#AAC842"/>
<path d="M37.035 18.1894C37.035 8.14263 28.8924 0 18.8456 0C8.79888 0 0.65625 8.14263 0.65625 18.1894C0.65625 27.2699 7.30674 34.7943 16.0035 36.1585V23.4473H11.3851V18.1894H16.0035V14.182C16.0035 9.624 18.7178 7.10523 22.8743 7.10523C24.8637 7.10523 26.9456 7.46049 26.9456 7.46049V11.9368H24.6506C22.3911 11.9368 21.6877 13.3401 21.6877 14.7789V18.1894H26.7324L25.926 23.4473H21.6877V36.1585C30.3845 34.7943 37.035 27.2699 37.035 18.1894Z" fill="#AAC842"/>
<path d="M24.0578 19.7883L24.6467 15.7065H20.9629V13.0588C20.9629 11.9419 21.4765 10.8524 23.1265 10.8524H24.8024V7.37736C24.8024 7.37736 23.2821 7.10156 21.8293 7.10156C18.7941 7.10156 16.812 9.05695 16.812 12.5955V15.7065H13.4395V19.7883H16.812V29.6564C17.4891 29.7695 18.1818 29.8274 18.8874 29.8274C19.5931 29.8274 20.2858 29.7695 20.9629 29.6564V19.7883H24.0578Z" fill="white"/>
</svg>
