<svg width="31" height="31" viewBox="0 0 31 31" fill="none" xmlns="http://www.w3.org/2000/svg">
<g clip-path="url(#clip0)">
<path d="M30.5398 11.2056C30.1304 10.692 29.5163 10.3974 28.8548 10.3974H22.8846L19.6472 2.98445C19.4465 2.52484 18.9112 2.31481 18.4515 2.51564C17.9918 2.71635 17.7819 3.25177 17.9827 3.71144L20.9025 10.3975H10.0975L13.0173 3.71144C13.2181 3.25177 13.0082 2.71641 12.5485 2.51564C12.0889 2.31481 11.5535 2.52472 11.3528 2.98445L8.1154 10.3975H2.14524C1.48371 10.3975 0.869578 10.692 0.460221 11.2056C0.058371 11.7099 -0.0899083 12.3581 0.0534062 12.9843L3.24162 26.91C3.46425 27.8824 4.32444 28.5615 5.33346 28.5615H25.6665C26.6756 28.5615 27.5358 27.8824 27.7584 26.91L30.9466 12.9842C31.0899 12.358 30.9416 11.7098 30.5398 11.2056ZM25.6665 26.745H5.33346C5.17924 26.745 5.04416 26.6439 5.01226 26.5046L1.82404 12.5789C1.79903 12.4696 1.84099 12.3874 1.88071 12.3377C1.91752 12.2914 2.0009 12.2139 2.14524 12.2139H7.32218L7.08429 12.7586C6.88358 13.2183 7.09343 13.7536 7.55311 13.9544C7.67141 14.0061 7.79469 14.0306 7.91608 14.0306C8.26617 14.0306 8.59978 13.8269 8.74885 13.4856L9.30424 12.214H21.6959L22.2513 13.4856C22.4004 13.827 22.734 14.0306 23.084 14.0306C23.2054 14.0306 23.3287 14.0061 23.447 13.9544C23.9067 13.7537 24.1166 13.2183 23.9158 12.7586L23.6779 12.2139H28.8549C28.9992 12.2139 29.0826 12.2914 29.1194 12.3377C29.1591 12.3874 29.2011 12.4697 29.1761 12.5788L25.9879 26.5046C25.9559 26.6439 25.8208 26.745 25.6665 26.745Z" fill="#1F8738"/>
<path d="M10.0508 16.1494C9.54921 16.1494 9.14258 16.556 9.14258 17.0576V23.7178C9.14258 24.2193 9.54921 24.626 10.0508 24.626C10.5524 24.626 10.959 24.2193 10.959 23.7178V17.0576C10.959 16.556 10.5524 16.1494 10.0508 16.1494Z" fill="#1F8738"/>
<path d="M15.5 16.1494C14.9984 16.1494 14.5918 16.556 14.5918 17.0576V23.7178C14.5918 24.2193 14.9984 24.626 15.5 24.626C16.0016 24.626 16.4082 24.2193 16.4082 23.7178V17.0576C16.4082 16.556 16.0016 16.1494 15.5 16.1494Z" fill="#1F8738"/>
<path d="M20.9492 16.1494C20.4476 16.1494 20.041 16.556 20.041 17.0576V23.7178C20.041 24.2193 20.4476 24.626 20.9492 24.626C21.4508 24.626 21.8574 24.2193 21.8574 23.7178V17.0576C21.8574 16.556 21.4508 16.1494 20.9492 16.1494Z" fill="#1F8738"/>
</g>
<defs>
<clipPath id="clip0">
<rect width="31" height="31" fill="white"/>
</clipPath>
</defs>
</svg>
