<svg width="45" height="44" viewBox="0 0 45 44" fill="none" xmlns="http://www.w3.org/2000/svg">
<path d="M27.7176 13.8879L22.0173 19.5885L16.3164 13.8879C13.1628 10.7343 13.1628 5.51877 16.3164 2.36519C19.4699 -0.788395 24.6855 -0.788395 27.8391 2.36519C30.9926 5.51877 30.9925 10.7343 27.7176 13.8879Z" fill="#5EB02E"/>
<path d="M16.1892 30.019L21.8902 24.3184L27.5905 30.019C30.7441 33.1726 30.7441 38.3881 27.5905 41.5417C24.4369 44.6953 19.2214 44.6953 16.0678 41.5417C13.0355 38.3881 13.0356 33.1726 16.1892 30.019Z" fill="#14592A"/>
<path d="M30.1418 27.7149L24.4414 22.0141L30.1418 16.3134C33.2953 13.1598 38.5109 13.1598 41.6645 16.3134C44.818 19.467 44.818 24.6825 41.6645 27.8361C38.3896 30.8684 33.2953 30.8684 30.1418 27.7149Z" fill="#1B8838"/>
<path d="M13.8879 16.1922L19.5888 21.8928L13.8879 27.5934C10.7343 30.747 5.51877 30.747 2.36519 27.5934C-0.788395 24.4399 -0.788395 19.2243 2.36519 16.0707C5.51877 13.0385 10.7343 13.0386 13.8879 16.1922Z" fill="#ABE540"/>
</svg>
