<svg width="31" height="30" viewBox="0 0 31 30" fill="none" xmlns="http://www.w3.org/2000/svg">
<path d="M15.15 13.65L11.15 9.65C8.95 7.45 8.95 3.85 11.15 1.65C13.35 -0.55 16.95 -0.55 19.15 1.65C21.35 3.85 21.35 7.45 19.15 9.65L15.15 13.65Z" fill="white"/>
<path d="M15.15 16.0502L11.15 20.0502C8.95 22.2502 8.95 25.8502 11.15 28.0502C13.35 30.2502 16.95 30.2502 19.15 28.0502C21.35 25.8502 21.35 22.2502 19.15 20.0502L15.15 16.0502Z" fill="white"/>
<path d="M13.65 15.15L9.65 19.15C7.45 21.35 3.85 21.35 1.65 19.15C-0.55 16.95 -0.55 13.35 1.65 11.15C3.85 8.95 7.45 8.95 9.65 11.15L13.65 15.15Z" fill="white"/>
<path d="M16.5508 15.15L20.5508 11.15C22.7508 8.95 26.3508 8.95 28.5508 11.15C30.7508 13.35 30.7508 16.95 28.5508 19.15C26.3508 21.35 22.7508 21.35 20.5508 19.15L16.5508 15.15Z" fill="white"/>
</svg>
