<svg width="31" height="691" viewBox="0 0 31 691" fill="none" xmlns="http://www.w3.org/2000/svg">
<path d="M15.15 13.65L11.15 9.65C8.95 7.45 8.95 3.85 11.15 1.65C13.35 -0.55 16.95 -0.55 19.15 1.65C21.35 3.85 21.35 7.45 19.15 9.65L15.15 13.65Z" fill="#AAC842"/>
<path d="M15.15 16.0501L11.15 20.0501C8.95 22.2501 8.95 25.8501 11.15 28.0501C13.35 30.2501 16.95 30.2501 19.15 28.0501C21.35 25.8501 21.35 22.2501 19.15 20.0501L15.15 16.0501Z" fill="#AAC842"/>
<path d="M13.65 15.15L9.65 19.15C7.45 21.35 3.85 21.35 1.65 19.15C-0.55 16.95 -0.55 13.35 1.65 11.15C3.85 8.95 7.45 8.95 9.65 11.15L13.65 15.15Z" fill="#AAC842"/>
<path d="M16.5508 15.15L20.5508 11.15C22.7508 8.95 26.3508 8.95 28.5508 11.15C30.7508 13.35 30.7508 16.95 28.5508 19.15C26.3508 21.35 22.7508 21.35 20.5508 19.15L16.5508 15.15Z" fill="#AAC842"/>
<path d="M23.7 35.55H22V647H23.7V35.55Z" fill="#AAC842"/>
<path d="M18.7 35.55H17V647H18.7V35.55Z" fill="#AAC842"/>
<path d="M13.7 35.55H12V647H13.7V35.55Z" fill="#AAC842"/>
<path d="M8.7 35.55H7V647H8.7V35.55Z" fill="#AAC842"/>
<path d="M23.7 542H22V691H23.7V542Z" fill="#AAC842"/>
<path d="M18.7 542H17V691H18.7V542Z" fill="#AAC842"/>
<path d="M13.7 542H12V691H13.7V542Z" fill="#AAC842"/>
<path d="M8.7 542H7V691H8.7V542Z" fill="#AAC842"/>
</svg>
