<svg width="86" height="27" viewBox="0 0 86 27" fill="none" xmlns="http://www.w3.org/2000/svg">
<g clip-path="url(#clip0)">
<path fill-rule="evenodd" clip-rule="evenodd" d="M79.1238 0.417726L79.1343 0.348389V0.417726H79.1238ZM79.1238 0.417726C78.9835 1.32214 78.7443 2.06254 78.4061 2.67106C78.0593 3.29506 77.6432 3.78039 77.1577 4.16173C76.6722 4.54306 76.1521 4.85506 75.5626 5.02839C74.973 5.23639 74.3488 5.37507 73.7246 5.47907L70.9504 5.89506C70.1875 5.99906 69.4593 6.1724 68.6964 6.41506C67.9335 6.65773 67.24 7.0044 66.6158 7.48973C65.9916 7.97507 65.4714 8.63374 65.0553 9.46574C64.6392 10.2977 64.3964 11.4071 64.3271 12.7591H64.3964C65.1593 11.6151 66.165 10.7137 67.344 10.0897C68.523 9.46573 69.8408 9.15374 71.2279 9.15374C72.615 9.15374 73.7593 9.36174 74.6609 9.77774C75.5625 10.1937 76.2908 10.6097 76.8456 11.0951C77.6779 11.7884 78.3021 12.6551 78.7876 13.6951C79.273 14.7351 79.5158 15.9831 79.5158 17.4738C79.5158 19.1378 79.2384 20.5244 78.6488 21.6338C78.0593 22.7431 77.3658 23.6098 76.4642 24.2338C75.5972 24.8924 74.6263 25.3084 73.5513 25.5858C72.4762 25.8284 71.4359 25.9671 70.4303 25.9671C68.9045 25.9671 67.6214 25.7244 66.6504 25.2738C65.6795 24.8231 64.9166 24.3724 64.3617 23.8871C63.7722 23.3671 63.3214 22.8124 62.94 22.1884C62.5932 21.5644 62.3158 20.9404 62.1077 20.2471C61.9343 19.5884 61.7956 18.8951 61.7263 18.2364C61.6569 17.5431 61.6222 16.9191 61.6222 16.2604C61.6222 15.2898 61.6916 14.2844 61.7956 13.2444C61.8996 12.2044 62.1077 11.1644 62.3504 10.1591C62.5932 9.15374 62.94 8.21773 63.3908 7.3164C63.8069 6.41507 64.3271 5.6524 64.9512 4.99374C65.4714 4.43907 65.9916 3.98839 66.5811 3.64173C67.1359 3.29506 67.7254 2.98306 68.2803 2.77506C68.8698 2.56706 69.4246 2.39373 69.9795 2.28973C70.5343 2.18573 71.0892 2.08173 71.644 2.0124L74.4182 1.66573C75.0424 1.5964 75.5972 1.4924 76.1867 1.31906C76.7416 1.14573 77.0884 0.868394 77.2271 0.417726H79.1238ZM68.5577 11.5111C69.0432 11.1297 69.7021 10.9217 70.5343 10.9217C71.3666 10.9217 72.0601 11.1298 72.615 11.5804C73.1351 11.9618 73.5513 12.4818 73.8634 13.1404C74.1755 13.7644 74.3835 14.4924 74.4875 15.2898C74.5916 16.0871 74.6609 16.8844 74.6609 17.6471C74.6609 18.0631 74.6263 18.6178 74.5569 19.3458C74.4876 20.0391 74.3488 20.7671 74.0714 21.4604C73.794 22.1538 73.3779 22.7778 72.823 23.2978C72.2682 23.8178 71.4706 24.0604 70.4996 24.0604C69.5287 24.0604 68.8004 23.8178 68.2456 23.2978C67.6908 22.7778 67.3093 22.1884 67.0319 21.4604C66.7545 20.7324 66.5811 20.0044 66.5117 19.2764C66.4424 18.5138 66.4077 17.9244 66.4077 17.4391C66.4077 16.2258 66.5117 15.2551 66.7198 14.5617C66.9279 13.8684 67.1359 13.2791 67.3787 12.8631C67.6561 12.3431 68.0722 11.8924 68.5577 11.5111ZM7.76775 26.0018C5.34033 26.0711 2.4621 25.5858 0.242741 24.5111L1.10968 22.2231C2.4621 23.0898 4.50807 23.7485 7.00484 23.7831C9.50161 23.8178 11.7903 22.8125 13.2121 20.7325C13.8363 19.8311 14.2871 18.7911 14.5645 17.6125C14.8073 16.4338 14.946 15.2205 14.9113 13.9378C14.8766 12.9325 14.7726 12.0658 14.5992 11.2685C14.4258 10.4711 14.1831 9.77777 13.9403 9.18844C13.6976 8.56444 13.3855 8.04444 13.0734 7.62844C12.7613 7.21244 12.4492 6.83111 12.1024 6.51911C11.4089 5.89511 10.646 5.44444 9.74436 5.09777C7.97581 4.40444 6.10323 4.57777 4.36936 5.3751L4.32016 5.40076C4.65053 5.56182 4.9506 5.75322 5.19622 5.99914C5.47321 6.27648 5.71558 6.58847 5.8887 6.96981C6.06182 7.35114 6.16569 7.73248 6.16569 8.11381C6.16569 8.94581 5.8887 9.67381 5.30009 10.2631C4.71148 10.8525 3.94975 11.1645 3.08415 11.1992C2.25318 11.1992 1.52607 10.9218 0.937463 10.3672C0.31423 9.81248 0.00260991 9.08448 0.00260991 8.25248C-0.00509236 8.05968 0.00433958 7.87375 0.0297622 7.69468L0 7.66311C1.10968 2.94844 7.97581 1.80444 12.1371 3.08711C13.6282 3.53778 14.8766 4.19643 15.9516 5.02844C17.1307 5.96444 18.1363 7.17777 18.9339 8.66844C19.7661 10.1591 20.1823 11.9271 20.2169 14.0071C20.2169 14.7005 20.1823 15.3938 20.0782 16.1218C19.9742 16.8498 19.8008 17.5778 19.5234 18.3058C19.246 19.0685 18.8992 19.7965 18.4484 20.5245C17.9976 21.2871 17.4427 21.9805 16.7492 22.6391C16.0903 23.2978 15.4315 23.8178 14.7379 24.2338C14.0444 24.6498 13.3161 24.9965 12.5532 25.2391C11.7903 25.4818 11.0274 25.6898 10.2298 25.7938C9.43226 25.9325 8.60001 26.0018 7.76775 26.0018ZM23.8932 22.0498C23.8932 23.7485 22.9916 24.0258 21.5351 24.0605V25.6552H30.4819V24.1298C29.0254 24.0952 28.1932 23.8178 28.1932 22.1192V20.2125V17.9938H34.8512V18.6872V20.7325V22.1192C34.8512 23.8178 34.019 24.0952 32.5625 24.1298V25.6552H41.5093V24.1298C40.0528 24.0952 39.1512 23.8178 39.1512 22.1192V19.6232V14.3538V12.6898C39.1512 10.9912 40.0528 10.7138 41.5093 10.6792V9.15382H32.5625V10.6792C34.019 10.7138 34.8512 10.9912 34.8512 12.6898V13.6952V16.0872H32.4932H31.7303H31.2795H30.5166H28.1585V14.9778V14.9085V12.6552C28.1585 10.9912 28.9561 10.7138 30.3778 10.6445H30.4472V9.11915H21.5351V10.6445C22.9916 10.6792 23.8932 10.9565 23.8932 12.6552V13.5565V22.0498ZM50.9766 8.70313C52.2597 8.70313 53.404 8.87647 54.375 9.2578C55.346 9.63914 56.1782 10.1245 56.8718 10.6792C57.1839 10.9565 57.496 11.2685 57.8427 11.6845C58.1895 12.0658 58.5016 12.5512 58.7443 13.0712C59.0218 13.6258 59.2298 14.2151 59.4032 14.9085C59.5766 15.6018 59.6806 16.3645 59.6806 17.2658C59.6806 18.9645 59.4032 20.3858 58.8137 21.4952C58.2242 22.6045 57.496 23.4712 56.629 24.1298C55.7274 24.7885 54.7564 25.2392 53.7161 25.4818C52.6411 25.7245 51.6355 25.8632 50.6992 25.8632C49.4855 25.8632 48.3411 25.6898 47.2661 25.3432C46.1911 24.9965 45.2548 24.4765 44.4572 23.7832C43.6597 23.0898 43.0008 22.1885 42.55 21.1138C42.0992 20.0392 41.8564 18.7912 41.8564 17.3005C41.8564 15.7405 42.0992 14.4232 42.6193 13.3138C43.1048 12.2045 43.7984 11.3378 44.6306 10.6445C45.4629 9.95114 46.4338 9.46581 47.5435 9.11914C48.6185 8.87647 49.7629 8.70313 50.9766 8.70313ZM50.6992 10.5405C50.2484 10.5405 49.8322 10.6098 49.4855 10.7485C49.1387 10.8871 48.8613 11.0605 48.6185 11.2685C48.3758 11.4765 48.1677 11.6845 47.9943 11.9272C47.821 12.1352 47.6822 12.3778 47.5782 12.5858C47.3355 13.0365 47.1274 13.6258 46.9193 14.3885C46.7113 15.1165 46.6072 16.1218 46.6072 17.3351C46.6072 17.9592 46.6766 18.6525 46.7806 19.4152C46.8847 20.1778 47.0927 20.9405 47.4048 21.6338C47.7169 22.3272 48.133 22.9165 48.6532 23.4018C49.1734 23.8872 49.8669 24.1298 50.6645 24.1298C51.4968 24.1298 52.1903 23.8872 52.7451 23.4018C53.3 22.9165 53.7161 22.3272 53.9935 21.6338C54.3056 20.9405 54.5137 20.2125 54.6177 19.4498C54.7218 18.6872 54.7911 18.0285 54.7911 17.4392C54.7911 16.9538 54.7218 16.3298 54.6177 15.5672C54.5137 14.8045 54.3056 14.0418 54.0282 13.3138C53.7508 12.5858 53.3 11.9272 52.7798 11.4072C52.2943 10.7832 51.5661 10.5405 50.6992 10.5405ZM83.1563 20.975C83.5377 20.975 83.8845 21.0443 84.2313 21.183C84.5781 21.3217 84.8555 21.5297 85.1329 21.7723C85.3757 22.015 85.5837 22.2923 85.7571 22.639C85.9305 22.9857 85.9998 23.2977 85.9998 23.679C85.9998 24.407 85.7224 25.0657 85.1676 25.5857C84.6127 26.1057 83.9539 26.3483 83.1563 26.3483C82.3934 26.3483 81.7692 26.1057 81.2143 25.5857C80.6595 25.0657 80.4168 24.4417 80.4168 23.679C80.4168 22.9163 80.6942 22.2577 81.2143 21.7377C81.7345 21.2177 82.3934 20.975 83.1563 20.975Z" fill="white"/>
</g>
<defs>
<clipPath id="clip0">
<rect width="86" height="26" fill="white" transform="translate(0 0.348389)"/>
</clipPath>
</defs>
</svg>
