<svg width="37" height="37" viewBox="0 0 37 37" fill="none" xmlns="http://www.w3.org/2000/svg">
<rect width="36.3788" height="36.3788" transform="translate(0.310547)" fill="#AAC842"/>
<path d="M0.310547 18.1894C0.310547 8.14366 8.45421 0 18.4999 0C28.5456 0 36.6893 8.14366 36.6893 18.1894C36.6893 28.2351 28.5456 36.3788 18.4999 36.3788C8.45421 36.3788 0.310547 28.2351 0.310547 18.1894Z" fill="#AAC842"/>
<path d="M20.4692 22.3126L23.1875 24.9369C23.7444 25.4733 23.7444 26.3445 23.1875 26.8814C22.6312 27.4184 21.7296 27.4184 21.1739 26.8814L18.5012 24.3027L15.8309 26.8814C15.5525 27.1497 15.1877 27.2839 14.8228 27.2839C14.4586 27.2839 14.0943 27.1497 13.8159 26.8814C13.2596 26.3445 13.2596 25.4738 13.8153 24.9369L16.5339 22.3126C15.5441 22.095 14.5895 21.7164 13.7102 21.1839C13.0448 20.7789 12.845 19.9305 13.2642 19.2876C13.6823 18.6439 14.5615 18.4502 15.2281 18.8551C17.2188 20.0639 19.7831 20.0642 21.775 18.8551C22.4415 18.4502 23.3205 18.6439 23.7394 19.2876C24.1587 19.9299 23.9582 20.7789 23.2928 21.1839C22.4136 21.717 21.459 22.095 20.4692 22.3126Z" fill="white"/>
<path fill-rule="evenodd" clip-rule="evenodd" d="M13.623 13.7888C13.623 16.3765 15.804 18.4814 18.4856 18.4814C21.1678 18.4814 23.3482 16.3765 23.3482 13.7888C23.3482 11.2002 21.1678 9.09473 18.4856 9.09473C15.804 9.09473 13.623 11.2002 13.623 13.7888ZM20.4995 13.7886C20.4995 12.7169 19.5964 11.8455 18.4862 11.8455C17.3768 11.8455 16.4728 12.7169 16.4728 13.7886C16.4728 14.8595 17.3768 15.7315 18.4862 15.7315C19.5964 15.7315 20.4995 14.8595 20.4995 13.7886Z" fill="white"/>
</svg>
