<svg width="37" height="37" viewBox="0 0 37 37" fill="none" xmlns="http://www.w3.org/2000/svg">
<rect width="36.3788" height="36.3788" transform="translate(0.621094)" fill="#AAC842"/>
<path d="M18.8105 36.3788C28.8562 36.3788 36.9999 28.2351 36.9999 18.1894C36.9999 8.14369 28.8562 0 18.8105 0C8.76478 0 0.621094 8.14369 0.621094 18.1894C0.621094 28.2351 8.76478 36.3788 18.8105 36.3788Z" fill="#AAC842"/>
<path d="M7.39595 19.0784C9.52228 17.9072 11.8958 16.9296 14.1136 15.9471C17.929 14.3378 21.7595 12.7564 25.6287 11.2841C26.3815 11.0332 27.7341 10.7879 27.8667 11.9035C27.7941 13.4827 27.4954 15.0526 27.2904 16.6225C26.7703 20.0748 26.1691 23.5153 25.5829 26.9563C25.3809 28.1025 23.9451 28.6958 23.0264 27.9623C20.8185 26.4709 18.5936 24.9941 16.4139 23.4682C15.6999 22.7427 16.362 21.7008 16.9997 21.1827C18.8182 19.3906 20.7467 17.868 22.4702 15.9832C22.9351 14.8606 21.5615 15.8067 21.1084 16.0966C18.6189 17.8122 16.1903 19.6325 13.5655 21.1402C12.2248 21.8783 10.6622 21.2476 9.32212 20.8357C8.12054 20.3382 6.35979 19.837 7.39583 19.0785L7.39595 19.0784Z" fill="white"/>
</svg>
