<svg width="38" height="37" viewBox="0 0 38 37" fill="none" xmlns="http://www.w3.org/2000/svg">
<rect width="36.3788" height="36.3788" transform="translate(0.966797)" fill="#AAC842"/>
<path d="M0.966797 18.1894C0.966797 8.14366 9.11046 0 19.1562 0C29.2019 0 37.3456 8.14366 37.3456 18.1894C37.3456 28.2351 29.2019 36.3788 19.1562 36.3788C9.11046 36.3788 0.966797 28.2351 0.966797 18.1894Z" fill="#AAC842"/>
<path d="M18.6124 14.784L18.6506 15.4134L18.0144 15.3363C15.6988 15.0409 13.6759 14.039 11.9582 12.3564L11.1185 11.5214L10.9022 12.138C10.4442 13.5124 10.7368 14.9638 11.6911 15.94C12.2 16.4795 12.0855 16.5566 11.2076 16.2355C10.9022 16.1327 10.635 16.0556 10.6096 16.0942C10.5205 16.1841 10.8259 17.353 11.0676 17.8154C11.3984 18.4576 12.0727 19.087 12.8107 19.4595L13.4341 19.7549L12.6962 19.7678C11.9837 19.7678 11.9582 19.7806 12.0346 20.0504C12.289 20.8853 13.2942 21.7716 14.4138 22.1569L15.2026 22.4267L14.5156 22.8377C13.4977 23.4285 12.3018 23.7625 11.1058 23.7882C10.5333 23.801 10.0625 23.8524 10.0625 23.891C10.0625 24.0194 11.6147 24.7387 12.5181 25.0213C15.2281 25.8562 18.447 25.4966 20.8644 24.0708C22.582 23.0561 24.2996 21.0394 25.1012 19.087C25.5338 18.0466 25.9664 16.1456 25.9664 15.2336C25.9664 14.6427 26.0045 14.5657 26.717 13.8592C27.1369 13.4482 27.5313 12.9986 27.6076 12.8701C27.7349 12.6261 27.7222 12.6261 27.0733 12.8445C25.9918 13.2298 25.8391 13.1784 26.3735 12.6004C26.7679 12.1894 27.2387 11.4444 27.2387 11.226C27.2387 11.1875 27.0478 11.2517 26.8315 11.3673C26.6025 11.4958 26.0936 11.6884 25.7119 11.804L25.0249 12.0224L24.4014 11.5985C24.0579 11.3673 23.5744 11.1104 23.32 11.0333C22.6711 10.8535 21.6787 10.8792 21.0934 11.0847C19.503 11.6627 18.4979 13.1527 18.6124 14.784Z" fill="white"/>
</svg>
