<svg width="37" height="37" viewBox="0 0 37 37" fill="none" xmlns="http://www.w3.org/2000/svg">
<g clip-path="url(#clip0)">
<rect width="36.3788" height="36.3788" transform="translate(0 0.000976562)" fill="#AAC842"/>
<path fill-rule="evenodd" clip-rule="evenodd" d="M12.6055 0.000976562H23.7733C33.9655 0.000976562 36.3788 2.41424 36.3788 12.6064V23.7743C36.3788 33.9665 33.9655 36.3797 23.7733 36.3797H12.6055C2.41327 36.3797 0 33.9665 0 23.7743V12.6064C0 2.41424 2.41327 0.000976562 12.6055 0.000976562Z" fill="#AAC842"/>
<path fill-rule="evenodd" clip-rule="evenodd" d="M29.7463 13.0736C29.926 12.5396 29.7463 12.1512 28.95 12.1512H26.3044C25.6366 12.1512 25.3284 12.4911 25.1486 12.8552C25.1486 12.8552 23.7872 15.9623 21.8865 17.977C21.2701 18.5596 20.9876 18.7538 20.6537 18.7538C20.4738 18.7538 20.2427 18.5596 20.2427 18.0256V13.0493C20.2427 12.4182 20.0372 12.127 19.4721 12.127H15.3111C14.9002 12.127 14.6434 12.4182 14.6434 12.7095C14.6434 13.3164 15.5937 13.462 15.6964 15.1612V18.8509C15.6964 19.652 15.5423 19.7976 15.2084 19.7976C14.3094 19.7976 12.1262 16.6662 10.8162 13.0979C10.5593 12.394 10.3025 12.127 9.63474 12.127H6.96343C6.19289 12.127 6.06445 12.4668 6.06445 12.8309C6.06445 13.4863 6.96343 16.7876 10.2511 21.1569C12.4344 24.1426 15.5423 25.7447 18.342 25.7447C20.0372 25.7447 20.2427 25.3806 20.2427 24.7738V22.5163C20.2427 21.788 20.3968 21.6667 20.9362 21.6667C21.3215 21.6667 22.015 21.8608 23.5818 23.293C25.3797 24.9922 25.6879 25.769 26.6897 25.769H29.3353C30.1058 25.769 30.4655 25.4049 30.26 24.7009C30.0288 23.997 29.1555 22.9775 28.0253 21.7637C27.4089 21.0841 26.4842 20.3316 26.2017 19.9675C25.8164 19.482 25.9191 19.2879 26.2017 18.8509C26.176 18.8509 29.4123 14.5301 29.7463 13.0736Z" fill="white"/>
</g>
<defs>
<clipPath id="clip0">
<rect width="36.3788" height="36.3788" fill="white" transform="translate(0 0.000976562)"/>
</clipPath>
</defs>
</svg>
